<svg width="200" height="200" viewBox="0 0 200 200" fill="none" xmlns="http://www.w3.org/2000/svg">
<g clip-path="url(#clip0_254_683)">
<path fill-rule="evenodd" clip-rule="evenodd" d="M100 0C44.7715 0 0 44.7715 0 100C0 155.228 44.7715 200 100 200C155.228 200 200 155.228 200 100C200 44.7715 155.228 0 100 0ZM100 0C155.11 0 200 44.89 200 100C200 155.11 155.11 200 100 200C44.89 200 0 155.11 0 100C0 44.89 44.89 0 100 0ZM44.51 162.05V176.69C47.4 178.81 50.1 180.55 53.18 182.28V162.05H44.51ZM27.94 158.77H41.23V138.73H27.94V158.77ZM26.975 39.505C26.6375 39.89 26.3 40.275 26.01 40.66H27.94V38.35C27.65 38.735 27.3125 39.12 26.975 39.505ZM28.71 63.97L28.32 43.74V43.73H23.5C23.377 43.8994 23.2527 44.0701 23.1275 44.242C21.686 46.2219 20.1221 48.3698 18.88 50.67L24.27 58.96L27.55 63.97H28.71ZM149.904 19.5852L150.48 62.62H149.13V63.58H187.67C186.739 61.2616 185.564 58.9432 184.439 56.7228C184.161 56.1754 183.887 55.634 183.62 55.1H174.95L177.07 59.72L173.99 61.07L171.29 55.1H168.79L164.55 52.98L163.01 47.59L164.74 31.21C160.363 26.8332 155.225 23.0226 149.904 19.5852ZM169.75 52.03L166.67 45.09V45.28V47.4L167.63 50.87L169.75 52.03ZM188.83 86.51L191.91 89.79V89.8L192.1 89.99H194.22C193.45 84.01 192.29 78.42 190.75 73.03L186.32 76.69V78.04L187.67 79.58L189.79 80.93L188.06 85.55L188.83 86.51ZM161.694 115.608L169.95 117.53H170.91V115.03L161.694 115.608ZM56.26 180.92V183.04H88.05V169.17C88.05 169.17 84 162.62 83.81 162.62V163.01L83.04 162.43C83.04 162.43 83.04 162.04 82.85 162.04V161.65L56.26 162.04V180.92ZM57.42 121H56.07V135.45H66.67L57.61 121.19V121C57.61 121 57.42 120.81 57.42 121ZM52.03 103.66L53.76 106.55L53.77 106.56V106.37L57.24 111.76L69.96 111.18H87.69L87.3 67.44H59.36L32.19 67.83V71.3L33.15 72.84L32.57 73.42L33.34 73.03L42.78 88.44H43.36V89.4L47.98 97.11C47.98 97.11 51.84 101.93 52.03 101.93V103.66ZM74.19 138.73L76.69 142.58V138.73H74.19ZM60.31 116.76L72.06 135.45H87.86V115.6H70.71L60.31 116.76ZM80.93 158.19L80.54 157.42L68.79 138.54H56.27V158.19H80.93ZM88.06 161.55V138.54H79.77V148.17H79.58L88.06 161.55ZM91.33 91.14V111.37H108.67V91.14H91.33ZM110.02 63.58L108.29 36.61L108.28 36.6V36.79L106.93 33.71L90.75 17.53V22.92L91.14 63.58H110.02ZM87.48 63.59L87.09 22.94H86.9V19.09L54.72 18.51L57.22 56.08L56.26 63.59H59.73H87.48ZM36.03 88.05L32.56 82.27H32.37V88.05H36.03ZM111.94 115.8H91.71V135.26H111.94V115.8ZM111.94 111.37H112.51L113.47 108.87L114.63 107.91C114.63 107.91 112.51 102.9 112.32 102.9V77.47L111.55 67.64H91.32V88.06H111.94V111.37ZM115.41 67.82L116.18 100.19H116.19L117.92 104.43L122.54 100C122.54 100 123.5 95.76 123.31 95.76V67.63C123.31 67.63 115.41 67.63 115.41 67.82ZM116.57 110.21L116.18 110.6H115.8V111.37H117.92L116.57 110.21ZM119.84 107.13L123.89 110.79V110.409L135.45 110.98H147.01V92.1L147.78 69.94V67.44H126.78V95.96H125.24L126.78 96.35L125.43 101.74L119.84 107.13ZM123.89 110.409V110.4H123.7L123.89 110.409ZM181.89 82.08H184.97V81.89C184.97 81.89 185.36 82.28 185.55 82.28V81.7L183.05 79.97V79.01L181.32 76.89L183.05 74.96L183.63 74.57L184.02 74.18L182.29 73.22L178.63 73.8L178.05 74.57L176.89 77.46L179.39 79.77L181.89 82.08ZM186.51 71.68L188.63 69.56H189.02V67.83H184.2V70.33L186.51 71.68ZM177.46 69.75L180.54 69.36H180.55H180.94V67.63H151.65L150.69 90.94L176.51 91.9L177.47 90.55L168.03 82.65L164.95 72.25L168.03 71.29C168.03 71.29 170.34 79.38 170.53 79.38V78.99L180.36 87.28L182.09 85.93L180.74 85.35L177.27 81.88C177.27 81.88 173.22 78.22 173.22 78.03L172.26 77.07L175.34 72.83L176.11 70.71H176.88L177.46 69.75ZM150.67 94.2202V111.37H150.66L150.47 111.56H161.07V112.33L170.9 111.56V99.23L173.98 94.99C173.98 94.99 150.857 94.2324 150.67 94.2202ZM94.8 5.39H92.68H92.67H92.48V6.93L94.41 6.35L94.8 5.39ZM84.01 6.75L86.51 8.48L86.9 6.36C85.94 6.56 84.97 6.75 84.01 6.75ZM86.51 15.61V13.49V13.48H86.32L78.81 7.51C71.29 9.25 64.16 11.75 57.42 15.22L86.51 15.61ZM52.8 62.62L53.76 55.88H53.95L53.18 43.74H31.79L32.18 63.97L52.8 63.58V62.62ZM21.19 64.16L20.23 62.43L20.22 62.42H20.03L16.18 55.1C14.6639 57.9451 13.332 60.984 12.0029 64.0164L11.94 64.16H21.19ZM23.89 68.21H10.6V68.22H10.79C10.02 70.34 9.25 72.65 8.67 74.96V88.25H29.28V82.28L28.7 75.92L26.2 71.68L23.89 68.21ZM8.67 111.95H29.29V91.33H8.67V111.95ZM8.86 115.22V123.89V123.9V124.09H13.1V127.17H9.25C9.445 127.75 9.6375 128.327 9.83 128.905C10.0225 129.482 10.215 130.06 10.41 130.64L41.05 112.91L49.91 112.52L47.98 107.51L47.21 106.55H47.01L38.53 92.48H37.37V91.71H32.75V113.87H31.02V115.22H8.86ZM54.14 115.99L41.23 116.57L41.22 116.56L41.41 116.37L11.74 133.9C14.82 142.38 19.26 150.08 24.65 157.02V135.25H41.22V119.07H44.5V135.25H52.98V119.26H54.52C54.52 119.26 54.33 117.72 54.33 117.53H55.68L54.72 115.99H54.14ZM52.99 158.58V138.73V138.54H44.51V158.58H52.99ZM64.93 187.86V186.13H60.69C61.3174 186.395 61.9859 186.662 62.6573 186.93C63.4305 187.239 64.2074 187.55 64.93 187.86ZM76.69 186.13H68.21V189.41C70.9098 190.37 73.7996 191.14 76.6894 191.91L76.69 186.13ZM88.44 186.13H79.77V192.68C82.5224 193.232 85.2749 193.603 88.0273 193.974L88.44 194.03V186.13ZM99.5979 153.372L99.61 153.37H99.6L99.5979 153.372ZM91.9 154.72L99.5979 153.372L99.41 153.56L108.47 154.14L113.67 149.52L111.94 145.28V138.73H91.9V154.72ZM188.63 121.97H174.18V158.96C186.13 144.12 193.64 125.43 194.8 105.2L180.35 93.06C180.35 93.06 174.37 101.54 174.18 101.54V117.53L190.75 117.92V121.2H188.63V121.97ZM183.444 89.97L186.13 88.05L186.71 88.63L190.18 93.25H193.65C193.65 93.06 194.81 93.06 194.81 93.06C194.81 94.0973 194.855 95.18 194.902 96.286C194.95 97.4404 195 98.6202 195 99.8L183.63 89.97H183.444ZM173.41 51.83H181.7V51.64C177.85 45.09 173.22 39.11 168.02 33.72L167.06 42.39L168.79 41.62L173.41 51.83ZM146.62 18.69H148.55L148.54 18.67L149.31 19.06C135.06 10.58 118.49 5.57 100.76 5.57H99.03L97.68 9.42L93.44 10.77L95.94 16.36L104.23 21.37L105.77 21.76L105.38 23.11L105.77 24.27C105.77 24.27 104.81 24.66 104.81 24.85L111.36 30.63L113.48 35.45L115.6 62.04L116.76 63.39H145.08L136.99 56.45L139.11 53.95L147.2 60.89L146.62 18.69ZM52.8 40.66L51.45 18.69H51.46V18.5C44.13 22.93 37.39 28.32 31.61 34.49V40.66H52.8ZM41.04 162.24H28.52C32.37 166.48 36.42 170.53 41.04 174.19V162.24ZM92.29 174.95V194.21C94.8 194.6 97.5 194.6 100 194.6H104.43L97.88 184.2L92.29 174.95ZM121.2 164.74L119.08 163.78L119.07 163.77H118.88L115.22 164.16L112.14 165.51L110.21 170.52L114.06 174.76L115.02 186.13L122.73 189.6L127.74 190.37C132.94 188.82 137.95 186.7 142.77 184.2L143.16 177.65C143.16 177.65 140.46 171.67 140.46 171.48H139.5L132.95 169.94L131.99 168.21H131.6L130.06 165.32H122.16L121.2 164.74ZM107.916 193.25H108.09L108.67 194.41C112.52 194.03 116.38 193.45 120.23 192.68L113.1 189.21L112.14 190.56L107.916 193.25ZM146.83 177.27L146.44 182.66L146.45 182.7L147.03 183.28C156.09 178.08 164.37 171.34 171.31 163.63V122.2L163.99 120.47L147.42 117.19L115.82 116.8V145.12L116.78 147.43L117.17 147.04H117.75L118.33 146.46H144.92V150.12H119.1L116.98 152.05L111.59 157.83H110.24L92.71 158.79V168.23L102.34 183.84C102.34 183.84 106.58 190.39 106.58 190.58V190.19L111.4 186.72L111.98 185.18L110.82 176.12L106.58 171.5L109.66 163.21L111.01 162.63C111.01 162.63 112.36 161.28 112.36 161.09H114.86L117.94 159.93L119.67 160.51H121.02L122.95 162.05H132.39L134.89 166.48L140.67 168.41L143.75 169.18L146.83 177.27Z" fill="#C4C4C4"/>
<circle cx="100" cy="100" r="99.5" stroke="#C4C4C4"/>
</g>
<defs>
<clipPath id="clip0_254_683">
<rect width="200" height="200" fill="white"/>
</clipPath>
</defs>
</svg>
