<?xml version="1.0" encoding="UTF-8"?>
<svg id="Layer_1" xmlns="http://www.w3.org/2000/svg" version="1.1" viewBox="0 0 200 200">
  <!-- Generator: Adobe Illustrator 29.3.1, SVG Export Plug-In . SVG Version: 2.1.0 Build 151)  -->
  <defs>
    <style>
      .st0, .st1 {
        fill: none;
      }

      .st1 {
        stroke: #000;
        stroke-linecap: round;
        stroke-linejoin: round;
      }
    </style>
  </defs>
  <polygon class="st0" points="62.8 116.6 74.2 134.8 89.6 134.8 89.6 115.4 72.9 115.4 62.8 116.6"/>
  <path class="st0" d="M61.8,68.5l-26.5.4v3.4l.9,1.5-.6.6.8-.4,9.2,15h.6v.9l4.5,7.5s3.8,4.7,3.9,4.7v1.7l1.7,2.8h0v-.2l3.4,5.3,12.4-.6h17.3l-.4-42.6s-27.2,0-27.2,0Z"/>
  <path class="st0" d="M96.4,8h-2.3v1.5l1.9-.6s.4-.9.4-.9Z"/>
  <polygon class="st0" points="89.8 137.8 81.7 137.8 81.7 147.2 81.5 147.2 89.8 160.2 89.8 137.8"/>
  <path class="st0" d="M23.7,63.6h-.2l-3.8-7.1c-1.5,2.8-2.8,5.8-4.1,8.8h9s-.9-1.7-.9-1.7Z"/>
  <path class="st0" d="M58.8,137.8s0,19.3,0,19.1h24l-.4-.8-11.4-18.4h-12.2Z"/>
  <polygon class="st0" points="76.3 138 78.7 141.7 78.7 138 76.3 138"/>
  <polygon class="st0" points="35.5 83 35.5 88.6 39.1 88.6 35.7 83 35.5 83"/>
  <path class="st0" d="M54.1,21h0v-.2c-7.1,4.3-13.7,9.6-19.3,15.6v6h20.6s-1.3-21.4-1.3-21.4Z"/>
  <path class="st0" d="M31.2,40.2c-.6.8-1.3,1.5-1.9,2.3h1.9v-2.3Z"/>
  <path class="st0" d="M30.8,65.1h1.1l-.4-19.7h-4.7c-1.5,2.1-3.2,4.3-4.5,6.8l5.3,8.1,3.2,4.9h0Z"/>
  <path class="st0" d="M88.3,15.9h-.2l-7.3-5.8c-7.3,1.7-14.3,4.1-20.8,7.5l28.3.4s0-2.1,0-2.1Z"/>
  <polygon class="st0" points="58.8 64.8 62.2 64.8 89.2 64.8 88.9 25.1 88.9 25.1 88.7 25.1 88.7 21.4 57.3 20.8 59.7 57.4 58.8 64.8"/>
  <polygon class="st0" points="35.3 65.1 55.4 64.7 55.4 63.8 56.4 57.2 56.6 57.2 55.8 45.4 35 45.4 35.3 65.1"/>
  <path class="st0" d="M88.7,9c-.9.2-1.9.4-2.8.4l2.4,1.7.4-2.1Z"/>
  <path class="st0" d="M184.2,82.6s.4.4.6.4v-.6l-2.4-1.7v-.9l-1.7-2.1,1.7-1.9.6-.4.4-.4-1.7-.9-3.6.6-.6.8-1.1,2.8,2.4,2.3,2.4,2.3h3v-.2h0Z"/>
  <path class="st0" d="M185.5,78.8l1.3,1.5,2.1,1.3-1.7,4.5.8.9,3,3.2h0l.2.2h2.1c-.8-5.8-1.9-11.3-3.4-16.5l-4.3,3.6v1.3h-.1Z"/>
  <path class="st0" d="M170.2,80.1v-.4l9.6,8.1,1.7-1.3-1.3-.6-3.4-3.4s-3.9-3.6-3.9-3.8l-.9-.9,3-4.1.8-2.1h.8l.6-.9,3-.4h.4v-1.7h-28.5l-.9,22.7,25.2.9.9-1.3-9.2-7.7-3-10.1,3-.9s2.3,7.9,2.4,7.9h-.3Z"/>
  <polygon class="st0" points="183.5 71.3 185.7 72.6 187.8 70.6 188.2 70.6 188.2 68.9 183.5 68.9 183.5 71.3"/>
  <path class="st0" d="M192.7,93.7h-3.4l-3.4-4.5-.6-.6-2.6,1.9h.2l11.1,9.6c0-2.3-.2-4.5-.2-6.6,0,0-1.1,0-1.1.2Z"/>
  <path class="st0" d="M97.5,18.7l8.1,4.9,1.5.4-.4,1.3.4,1.1s-.9.4-.9.6l6.4,5.6,2.1,4.7,2.1,25.9,1.1,1.3h27.6l-7.9-6.8,2.1-2.4,7.9,6.8-.6-41.1h1.9l.8.4c-13.9-8.3-30-13.1-47.3-13.1h-1.7l-1.3,3.8-4.1,1.3,2.4,5.4h-.2Z"/>
  <path class="st0" d="M173,53.3h8.1v-.2c-3.8-6.4-8.3-12.2-13.3-17.5l-.9,8.4,1.7-.8,4.5,9.9v.2Z"/>
  <path class="st0" d="M124.7,110.4h-.2.2l11.3.6s11.4,0,11.3,0v-18.4l.8-21.6v-2.4s-20.6,0-20.5,0v27.8h-1.5l1.5.4-1.3,5.3-5.4,5.3,3.9,3.6v-.6Z"/>
  <polygon class="st0" points="116.8 110.6 116.8 111.3 118.9 111.3 117.6 110.2 117.2 110.6 116.8 110.6"/>
  <path class="st0" d="M123.4,100.2s.9-4.1.8-4.1v-27.4s-7.7,0-7.7.2l.8,31.5h0l1.7,4.1,4.5-4.3h-.1Z"/>
  <path class="st0" d="M149.3,63.8v.9h37.6c-1.1-2.8-2.6-5.6-3.9-8.3h-8.4l2.1,4.5-3,1.3-2.6-5.8h-2.4l-4.1-2.1-1.5-5.3,1.7-16c-4.3-4.3-9.3-8-14.5-11.3l.6,41.9h-1.3l-.3.2Z"/>
  <polygon class="st0" points="169.4 53.5 166.4 46.7 166.4 46.9 166.4 49 167.3 52.4 169.4 53.5"/>
  <path class="st0" d="M147.6,117l-30.8-.4v27.6l.9,2.3.4-.4h.6l.6-.6h25.9v3.6h-25.2l-2.1,1.9-5.3,5.6h-1.3l-17.1.9v9.2l9.4,15.2s4.1,6.4,4.1,6.6v-.4l4.7-3.4.6-1.5-1.1-8.8-4.1-4.5,3-8.1,1.3-.6s1.3-1.3,1.3-1.5h2.4l3-1.1,1.7.6h1.3l1.9,1.5h9.2l2.4,4.3,5.6,1.9,3,.8,3,7.9-.4,5.3h0l.6.6c8.8-5.1,16.9-11.6,23.7-19.1v-40.4l-7.1-1.7-16.1-3.2h0Z"/>
  <polygon class="st0" points="101 152.2 101.1 152.2 101 152.2 100.9 152.4 109.7 153 114.8 148.5 113.1 144.4 113.1 138 93.5 138 93.5 153.6 101 152.2 101 152.2"/>
  <polygon class="st0" points="109.5 38.5 109.5 38.5 109.5 38.6 108.2 35.6 92.4 19.9 92.4 25.1 92.8 64.7 111.2 64.7 109.5 38.5"/>
  <rect class="st0" x="93.4" y="115.6" width="19.7" height="19"/>
  <rect class="st0" x="93" y="91.6" width="16.9" height="19.7"/>
  <path class="st0" d="M139.9,169.9l-6.4-1.5-.9-1.7h-.4l-1.5-2.8h-7.7l-.9-.6-2.1-.9h-.2l-3.6.4-3,1.3-1.9,4.9,3.8,4.1.9,11.1,7.5,3.4,4.9.8c5.1-1.5,9.9-3.6,14.6-6l.4-6.4s-2.6-5.8-2.6-6h-.9Z"/>
  <path class="st0" d="M113.1,111.3h.6l.9-2.4,1.1-.9s-2.1-4.9-2.3-4.9v-24.8l-.8-9.6h-19.7v19.9h20.1v22.7h.1Z"/>
  <path class="st0" d="M93.9,173.3v19h0v-.2c2.4.4,5.1.4,7.5.4h4.3l-6.4-10.1-5.4-9h0Z"/>
  <path class="st0" d="M32.5,83l-.6-6.2-2.4-4.1-2.3-3.4h-13,.2c-.8,2.1-1.5,4.3-2.1,6.6v13h20.1v-5.8h0Z"/>
  <path class="st0" d="M173.7,101.7v15.6l16.1.4v3.2h-2.1v.8h-14.1v36c11.6-14.5,19-32.7,20.1-52.4l-14.1-11.8s-5.8,8.3-6,8.3h.1Z"/>
  <path class="st0" d="M150.8,111.3h0l-.2.2h10.3v.8l9.6-.8v-12l3-4.1s-22.9-.8-22.7-.8v16.7h0Z"/>
  <polygon class="st0" points="170.5 117.3 170.5 114.9 161.6 115.4 169.6 117.3 170.5 117.3"/>
  <path class="st0" d="M113.3,188.5l-4.1,2.6h.2l.6,1.1c3.8-.4,7.5-.9,11.3-1.7l-6.9-3.4-.9,1.3h-.2Z"/>
  <path class="st0" d="M47.4,175c2.8,2.1,5.4,3.8,8.4,5.4v-19.7h-8.4v14.3Z"/>
  <rect class="st0" x="31.2" y="138" width="13" height="19.5"/>
  <polygon class="st0" points="55.6 137.8 47.4 137.8 47.4 157.3 55.6 157.3 55.6 138 55.6 137.8"/>
  <path class="st0" d="M44,172.5v-11.6h-12.2c3.8,4.1,7.7,8.1,12.2,11.6Z"/>
  <path class="st0" d="M52.6,112.4l-1.9-4.9-.8-.9h-.2l-8.3-13.7h-1.1v-.8h-4.5v21.6h-1.7s0,1.5,0,1.3H12.6v8.4h0v.2h4.1v3h-3.8c.4,1.1.8,2.3,1.1,3.4l29.9-17.3,8.6-.4h0Z"/>
  <path class="st0" d="M57.3,115.8h-.6l-12.6.6h0l.2-.2-28.9,17.1c3,8.3,7.3,15.8,12.6,22.5v-21.2h16.1v-15.8h3.2v15.8h8.3v-15.6h1.5s-.2-1.5-.2-1.7h1.3s-.9-1.5-.9-1.5Z"/>
  <rect class="st0" x="12.4" y="91.8" width="20.1" height="20.1"/>
  <path class="st0" d="M60.1,120.9v-.2s-.2-.2-.2,0h-1.3v14.1h10.3s-8.8-13.9-8.8-13.9Z"/>
  <path class="st0" d="M67.3,185.8v-1.7h-4.1c1.3.6,2.8,1.1,4.1,1.7Z"/>
  <path class="st0" d="M89.8,167.6s-3.9-6.4-4.1-6.4v.4l-.8-.6s0-.4-.2-.4v-.4l-25.9.4v20.5h31v-13.5Z"/>
  <path class="st0" d="M70.5,187.4c2.6.9,5.4,1.7,8.3,2.4v-5.6h-8.3v3.2h0Z"/>
  <path class="st0" d="M81.7,190.5c2.8.6,5.6.9,8.4,1.3v-7.7h-8.4v6.4Z"/>
  <g>
    <path class="st0" d="M113.8,111.3l.9-2.4,1.1-.9s-2.1-4.9-2.3-4.9v-24.8l-.8-9.6h-19.6v19.9h20.1v22.7h.6Z"/>
    <polygon class="st0" points="89.8 137.8 81.7 137.8 81.7 147.2 81.5 147.2 89.8 160.2 89.8 137.8"/>
    <path class="st0" d="M61.9,68.5l-26.5.4v3.4l.9,1.5-.6.6.8-.4,9.2,15h.6v.9l4.5,7.5s3.7,4.7,3.9,4.7v1.7l1.7,2.8v-.2l3.4,5.3,12.4-.6h17.3l-.4-42.6h-27.2Z"/>
    <polygon class="st0" points="76.3 138 78.7 141.8 78.7 138 76.3 138"/>
    <polygon class="st0" points="96.4 8 94.1 8 94.1 9.5 96 8.9 96.4 8"/>
    <path class="st0" d="M58.9,137.9s0,19.3,0,19.1h24l-.4-.8h0c0,0-11.4-18.3-11.4-18.3h-12.2Z"/>
    <polygon class="st0" points="62.8 116.6 74.2 134.8 89.6 134.8 89.6 115.5 72.9 115.5 62.8 116.6"/>
    <polygon class="st0" points="58.9 64.8 89.3 64.8 88.9 25.2 88.7 25.2 88.7 21.5 57.4 20.9 59.8 57.5 58.9 64.8"/>
    <polygon class="st0" points="35.5 83 35.5 88.6 39.1 88.6 35.7 83 35.5 83"/>
    <path class="st0" d="M54.1,21v-.2c-7.1,4.3-13.7,9.6-19.3,15.6v6h20.6l-1.3-21.4Z"/>
    <polygon class="st0" points="35.4 65.1 55.5 64.7 55.5 63.8 56.4 57.2 56.6 57.2 55.8 45.4 35 45.4 35.4 65.1"/>
    <path class="st0" d="M88.3,15.9h-.2l-7.3-5.8c-7.3,1.7-14.2,4.1-20.8,7.5l28.3.4v-2.1Z"/>
    <path class="st0" d="M88.7,9c-.9.2-1.9.4-2.8.4l2.4,1.7.4-2.1Z"/>
    <path class="st0" d="M124.1,96.1v-27.4s-7.7,0-7.7.2l.8,31.5h-.1l1.7,4.1,4.5-4.3s1-4.1.8-4.1Z"/>
    <path class="st0" d="M169.8,80.2v-.4l9.6,8.1,1.7-1.3-1.3-.6-3.4-3.4s-3.9-3.6-3.9-3.8l-.9-.9,3-4.1.8-2.1h.8l.6-.9,3-.4h.4v-1.7h-28.5l-.9,22.7,25.2.9.9-1.3-9.2-7.7h-.3l-3-10.1,3-.9s2.2,7.9,2.4,7.9Z"/>
    <path class="st0" d="M181.2,82.7h3v-.2s.4.4.6.4v-.6l-2.4-1.7v-.9l-1.7-2.1,1.7-1.9.6-.4.4-.4-1.7-.9-3.6.6-.6.8-1.1,2.8,2.4,2.3,2.4,2.3h0Z"/>
    <path class="st0" d="M185.4,78.9l1.3,1.5,2.1,1.3-1.7,4.5.8.9,3,3.2.2.2h2c-.8-5.8-1.9-11.2-3.4-16.5l-4.3,3.6v1.3Z"/>
    <polygon class="st0" points="183.4 71.4 185.7 72.7 187.8 70.6 188.1 70.6 188.1 69 183.4 69 183.4 71.4"/>
    <path class="st0" d="M124.6,110.2l11.3.6s11.5,0,11.3,0v-18.4l.8-21.6v-2.4s-20.7,0-20.5,0v27.8h-1.5l1.5.4-1.3,5.3v-.2c-.1,0-5.5,5.3-5.5,5.3l3.9,3.6v-.4Z"/>
    <path class="st0" d="M192.7,93.6h-3.4l-3.4-4.5-.6-.6-2.6,1.9h.2l11.1,9.6c0-2.3-.2-4.5-.2-6.6,0,0-1.1,0-1.1.2Z"/>
    <path class="st0" d="M31.2,40.2c-.6.8-1.3,1.5-1.9,2.3h1.9v-2.3Z"/>
    <polygon class="st0" points="117.2 110.5 116.8 110.5 116.8 111.3 118.9 111.3 118.9 111.2 117.6 110.1 117.2 110.5"/>
    <path class="st0" d="M97.3,18.6l8.1,4.9,1.5.4-.4,1.3.4,1.1s-.9.4-.9.6l6.4,5.6,2.1,4.7,2.1,25.9,1.1,1.3h27.6l-7.9-6.8,2.1-2.4,7.9,6.8-.6-41.1h1.9l.8.4c-13.9-8.2-30-13.1-47.3-13.1h-1.9c0,0-1.3,3.7-1.3,3.7l-4.1,1.3,2.4,5.4Z"/>
    <path class="st0" d="M172.9,53.3h8.1v-.2c-3.7-6.4-8.2-12.2-13.3-17.5v.2c-.1,0-1,8.4-1,8.4l1.7-.8,4.5,9.9Z"/>
    <path class="st0" d="M149,64v.9h37.6c-1.1-2.9-2.6-5.7-3.9-8.3h-8.4l2.1,4.5-3,1.3-2.6-5.8h-2.4l-4.1-2.1-1.5-5.3,1.7-16-.3.2c-4.3-4.2-9.3-8-14.5-11.3l.6,41.9h-1.3Z"/>
    <polygon class="st0" points="169.4 53.5 166.4 46.7 166.4 46.9 166.4 49 167.3 52.4 169.4 53.5"/>
    <path class="st0" d="M67.3,185.8v-1.7h-4.1c1.3.6,2.8,1.1,4.1,1.7Z"/>
    <path class="st0" d="M140.9,169.8h-.9l-6.4-1.5-.9-1.7h-.4l-1.5-2.8h-7.7l-.9-.6-2.1-.9h-.2l-3.6.4-3,1.3-1.9,4.9,3.8,4.1.9,11.1,7.5,3.4,4.9.8c5-1.5,9.9-3.6,14.6-6h0c0,0,.4-6.5.4-6.5,0,0-2.6-5.8-2.6-6Z"/>
    <path class="st0" d="M93.9,173.2v18.8c2.4.4,5.1.4,7.5.4h0c0-.1,4.3-.1,4.3-.1l-6.4-10.1-5.4-9Z"/>
    <polygon class="st0" points="109.5 38.4 109.5 38.6 108.2 35.6 92.4 19.8 92.4 25.1 92.8 64.7 111.2 64.7 109.5 38.4"/>
    <polygon class="st0" points="100.8 152.4 109.6 153 114.7 148.5 113 144.4 113 138 93.5 138 93.5 153.5 101 152.2 100.8 152.4"/>
    <polygon class="st0" points="109.9 91.6 93 91.6 93 111.3 109.9 111.3 109.9 91.6"/>
    <polygon class="st0" points="113.1 115.6 93.4 115.6 93.4 134.6 113.1 134.6 113.1 115.6"/>
    <path class="st0" d="M113.2,188.5l-4.1,2.6h.2l.6,1.1h-.2c3.8-.3,7.5-.8,11.3-1.6l-6.9-3.4-.9,1.3Z"/>
    <path class="st0" d="M147.7,116.8l-30.8-.4v27.6l.9,2.3.4-.4h.6l.6-.6h25.9v3.6h-25.2l-2.1,1.9-5.3,5.6h-1.3l-17.1.9v9.2l9.4,15.2s4.1,6.4,4.1,6.6v-.4l4.7-3.4.6-1.5-1.1-8.8-4.1-4.5,3-8.1,1.3-.6s1.3-1.3,1.3-1.5h2.4l3-1.1,1.7.6h1.3l1.9,1.5h9.2l2.4,4.3,5.6,1.9,3,.8,3,7.9-.4,5.3.6.6c8.9-5,16.9-11.6,23.7-19.1h0v-40.5l-7.1-1.7-16.1-3.2Z"/>
    <path class="st0" d="M173.8,101.7v15.6l16.1.4v3.2h-2.1v.8h-14.1v36h0c11.7-14.6,19-32.8,20.1-52.5l-14.1-11.8s-5.8,8.3-6,8.3Z"/>
    <path class="st0" d="M30.9,65.1h1.1l-.4-19.7h-4.7c-1.5,2-3.2,4.3-4.5,6.7l5.3,8.1,3.2,4.9Z"/>
    <path class="st0" d="M150.8,111.3l-.2.2h10.3v.8l9.6-.8v-12l3-4.1s-22.9-.8-22.7-.8v16.7Z"/>
    <polygon class="st0" points="170.6 117.2 170.6 114.8 162 115.4 169.7 117.2 170.6 117.2"/>
    <path class="st0" d="M47.4,175c2.8,2,5.4,3.7,8.4,5.4v-19.7h-8.4v14.3Z"/>
    <rect class="st0" x="12.4" y="91.8" width="20.1" height="20.1"/>
    <path class="st0" d="M52.8,112.4l-1.9-4.9-.8-.9h-.2l-8.3-13.7h-1.1v-.8h-4.5v21.6h-1.7v1.3s0,0,0,0c0,0,0,0,0,0H12.7v8.7h4.1v3h-3.6c.3,1.1.7,2.3,1.1,3.4l29.9-17.3,8.6-.4Z"/>
    <rect class="st0" x="31.2" y="138" width="13" height="19.5"/>
    <path class="st0" d="M44,172.5v-11.6h-12.2c3.8,4.1,7.7,8,12.2,11.6Z"/>
    <path class="st0" d="M32.6,82.9l-.6-6.2-2.4-4.1-2.3-3.4h-12.8c-.8,2.1-1.5,4.3-2.1,6.6v12.9h20.2v-5.8Z"/>
    <path class="st0" d="M23.8,63.6h-.2l-3.8-7.1c-1.5,2.8-2.8,5.8-4.1,8.8h9l-.9-1.7Z"/>
    <path class="st0" d="M70.4,187.4c2.7.9,5.5,1.6,8.3,2.4v-5.6h-8.3v3.2Z"/>
    <path class="st0" d="M81.8,190.6c2.8.5,5.6.9,8.4,1.3v-7.7h-8.4v6.4Z"/>
    <path class="st0" d="M60.1,120.9v-.2s-.2-.2-.2,0h-1.3v14.1h10.3l-8.8-13.9Z"/>
    <path class="st0" d="M89.8,167.7s-3.9-6.4-4.1-6.4v.4l-.8-.6s0-.4-.2-.4v-.4l-25.9.4v20.5h31v-13.5Z"/>
    <path class="st0" d="M57.3,115.8h-.6l-12.6.6.2-.2-28.9,17.1c3,8.2,7.3,15.7,12.6,22.5v-21.2h16.1v-15.8h3.2v15.8h8.3v-15.6h1.5s-.2-1.5-.2-1.7h1.3l-.9-1.5Z"/>
    <rect class="st0" x="47.4" y="137.8" width="8.3" height="19.5"/>
    <path class="st1" d="M34.3,115s0,0,0,0"/>
    <path d="M101.4,2.8C47.7,2.8,4,46.5,4,100.2s43.7,97.4,97.4,97.4,97.4-43.7,97.4-97.4S155.1,2.8,101.4,2.8ZM194,100l-11.1-9.6h-.2l2.6-1.9.6.6,3.4,4.5h3.4c0-.2,1.1-.2,1.1-.2,0,2.1.2,4.3.2,6.6ZM167.4,83.3h.3l9.2,7.7-.9,1.3-25.2-.9.9-22.7h28.5v1.7h-.4l-3,.4-.6.9h-.8l-.8,2.1-3,4.1.9.9c0,.2,3.9,3.8,3.9,3.8l3.4,3.4,1.3.6-1.7,1.3-9.6-8.1v.4c-.2,0-2.4-7.9-2.4-7.9l-3,.9,3,10.1ZM178.8,80.5l-2.4-2.3,1.1-2.8.6-.8,3.6-.6,1.7.9-.4.4-.6.4-1.7,1.9,1.7,2.1v.9l2.4,1.7v.6c-.2,0-.6-.4-.6-.4v.2h-3c0,0-2.4-2.2-2.4-2.2ZM193.1,90.5h-2l-.2-.2-3-3.2-.8-.9,1.7-4.5-2.1-1.3-1.3-1.5v-1.3l4.3-3.6c1.5,5.3,2.6,10.7,3.4,16.5ZM188.1,70.6h-.3l-2.1,2.1-2.3-1.3v-2.4h4.7v1.6ZM167.6,35.8v-.2c5.2,5.3,9.7,11.1,13.4,17.5v.2h-8.1l-4.5-9.9-1.7.8.9-8.4ZM166.4,46.9v-.2l3,6.8-2.1-1.1-.9-3.4v-2.1ZM164.2,33.4l.3-.2-1.7,16,1.5,5.3,4.1,2.1h2.4l2.6,5.8,3-1.3-2.1-4.5h8.4c1.3,2.6,2.8,5.4,3.9,8.3h-37.6v-.9h1.3l-.6-41.9c5.2,3.3,10.2,7.1,14.5,11.3ZM100.3,8.1h.2c0,0,1.7,0,1.7,0,17.3,0,33.4,4.9,47.3,13.1l-.8-.4h-1.9l.6,41.1-7.9-6.8-2.1,2.4,7.9,6.8h-27.6l-1.1-1.3-2.1-25.9-2.1-4.7-6.4-5.6c0-.2.9-.6.9-.6l-.4-1.1.4-1.3-1.5-.4-8.1-4.9-2.4-5.4,4.1-1.3,1.3-3.8ZM118.8,104.5l-1.7-4.1h.1l-.8-31.5c0-.2,7.7-.2,7.7-.2v27.4c.2,0-.8,4.1-.8,4.1l-4.5,4.3ZM118.9,111.2h0c0,0-2.1,0-2.1,0v-.8h.4l.4-.4,1.3,1.1ZM126.1,101.7v.2c.1,0,1.4-5.3,1.4-5.3l-1.5-.4h1.5v-27.8c-.2,0,20.5,0,20.5,0v2.4l-.8,21.6v18.4c.2,0-11.3,0-11.3,0l-11.3-.6v.4l-3.9-3.6,5.4-5.3ZM93.1,88.6v-19.9h19.6l.8,9.6v24.8c.2,0,2.3,4.9,2.3,4.9l-1.1.9-.9,2.4h-.6v-22.7h-20.1ZM94.1,8h2.3l-.4.9-1.9.6v-1.5ZM82.5,156.3h0c0,0,.4.7.4.7h-24c0,.2,0-19.1,0-19.1h12.2l11.4,18.4ZM76.3,138h2.4v3.8l-2.4-3.8ZM81.5,147.2h.2v-9.4h8.1v22.4l-8.3-13ZM89.6,134.8h-15.4l-11.4-18.2,10.1-1.1h16.7v19.3ZM72.2,111.1l-12.4.6-3.4-5.3v.2l-1.7-2.8v-1.7c-.2,0-3.9-4.7-3.9-4.7l-4.5-7.5v-.9h-.6l-9.2-15-.8.4.6-.6-.9-1.5v-3.4l26.5-.4h27.2l.4,42.6h-17.3ZM39.1,88.6h-3.6v-5.6h.2l3.4,5.6ZM88.7,9l-.4,2.1-2.4-1.7c.9,0,1.9-.2,2.8-.4ZM80.8,10.1l7.3,5.8h.2v2.1l-28.3-.4c6.6-3.4,13.5-5.8,20.8-7.5ZM88.7,21.5v3.7h.2l.4,39.6h-30.4l.9-7.3-2.4-36.6,31.3.6ZM56.6,57.2h-.2l-.9,6.6v.9l-20.1.4-.4-19.7h20.8l.8,11.8ZM34.8,36.4c5.6-6,12.2-11.3,19.3-15.6v.2l1.3,21.4h-20.6v-6ZM31.2,40.2v2.3h-1.9c.6-.8,1.3-1.5,1.9-2.3ZM26.9,45.3h0c0,.1,4.7.1,4.7.1l.4,19.7h-1.1l-3.2-4.9-5.3-8.1c1.3-2.4,3-4.7,4.5-6.8ZM19.8,56.5l3.8,7.1h.2l.9,1.7h-9c1.3-3,2.6-6,4.1-8.8ZM12.4,75.8c.6-2.3,1.3-4.5,2.1-6.6h12.8l2.3,3.4,2.4,4.1.6,6.2v5.8H12.4v-12.9ZM12.4,91.8h20.1v20.1H12.4v-20.1ZM13.2,126.7h3.6v-3h-4.1v-8.7h21.6v-1.3h1.7v-21.6h4.5v.8h1.1l8.3,13.7h.2l.8.9,1.9,4.9-8.6.4-29.9,17.3c-.4-1.1-.8-2.3-1.1-3.4ZM44,172.5c-4.5-3.6-8.4-7.5-12.2-11.6h12.2v11.6ZM44.2,157.5h-13v-19.5h13v19.5ZM55.8,180.4c-3-1.7-5.6-3.4-8.4-5.4v-14.3h8.4v19.7ZM47.4,157.3v-19.5h8.3v19.5h-8.3ZM57.1,119h-1.5v15.6h-8.3v-15.8h-3.2v15.8h-16.1v21.2c-5.3-6.8-9.6-14.3-12.6-22.5l28.9-17.1-.2.2,12.6-.6h.6l.9,1.5h-1.3c0,.2.2,1.7.2,1.7ZM58.6,120.7h1.3c0-.2.2,0,.2,0v.2l8.8,13.9h-10.3v-14.1ZM58.8,179.1v-18.4l25.9-.4v.4c.2,0,.2.4.2.4l.8.6v-.4c.2,0,4.1,6.4,4.1,6.4v13.5h-31v-2.1ZM67.3,185.8c-1.3-.6-2.8-1.1-4.1-1.7h4.1v1.7ZM78.7,189.8c-2.8-.8-5.6-1.5-8.3-2.4v-3.2h8.3v5.6ZM90.2,191.9c-2.8-.4-5.6-.8-8.4-1.3v-6.4h8.4v7.7ZM92.4,25.1v-5.3l15.8,15.8,1.3,3v-.2l1.7,26.3h-18.4l-.4-39.6ZM93,91.6h16.9v19.7h-16.9v-19.7ZM93.4,115.6h19.7v19h-19.7v-19ZM93.5,138h19.5v6.4l1.7,4.1-5.1,4.5-8.8-.6.2-.2-7.5,1.3v-15.5ZM101.4,192.3h0c-2.4.1-5.1.1-7.5-.3v-18.8l5.4,9,6.4,10.1h-4.3ZM109.7,192.3h.2c0,0-.6-1.2-.6-1.2h-.2l4.1-2.6.9-1.3,6.9,3.4c-3.8.8-7.5,1.3-11.3,1.7ZM143.1,182.3c-4.7,2.4-9.6,4.5-14.6,6l-4.9-.8-7.5-3.4-.9-11.1-3.8-4.1,1.9-4.9,3-1.3,3.6-.4h.2l2.1.9.9.6h7.7l1.5,2.8h.4l.9,1.7,6.4,1.5h.9c0,.2,2.6,6,2.6,6l-.4,6.4h0ZM170.9,162.1h0c-6.8,7.6-14.8,14.2-23.7,19.2l-.6-.6.4-5.3-3-7.9-3-.8-5.6-1.9-2.4-4.3h-9.2l-1.9-1.5h-1.3l-1.7-.6-3,1.1h-2.4c0,.2-1.3,1.5-1.3,1.5l-1.3.6-3,8.1,4.1,4.5,1.1,8.8-.6,1.5-4.7,3.4v.4c0-.2-4.1-6.6-4.1-6.6l-9.4-15.2v-9.2l17.1-.9h1.3l5.3-5.6,2.1-1.9h25.2v-3.6h-25.9l-.6.6h-.6l-.4.4-.9-2.3v-27.6l30.8.4,16.1,3.2,7.1,1.7v40.4ZM162,115.4l8.6-.6v2.4h-.9l-7.7-1.8ZM170.5,99.5v12l-9.6.8v-.8h-10.3l.2-.2v-16.7c-.2,0,22.7.8,22.7.8l-3,4.1ZM173.8,157.6h0c0,0,0-35.9,0-35.9h14.1v-.8h2.1v-3.2l-16.1-.4v-15.6c.2,0,6-8.3,6-8.3l14.1,11.8c-1.1,19.7-8.4,37.9-20.1,52.4Z"/>
  </g>
  <polygon points="101 152.2 101 152.2 101.1 152.2 101 152.2"/>
  <polygon points="124.5 110.4 124.7 110.4 124.7 110.4 124.5 110.4"/>
</svg>