<svg width="200" height="200" viewBox="0 0 200 200" xmlns="http://www.w3.org/2000/svg">
<path d="M100 0C44.89 0 0 44.89 0 100C0 155.11 44.89 200 100 200C155.11 200 200 155.11 200 100C200 44.89 155.11 0 100 0ZM44.51 176.69V162.05H53.18V182.28C50.1 180.55 47.4 178.81 44.51 176.69ZM41.23 158.77H27.94V138.73H41.23V158.77ZM28.13 40.66H26.01C26.59 39.89 27.36 39.12 27.94 38.35V40.66H28.13ZM28.32 43.74L28.71 63.97H27.55L24.27 58.96L18.88 50.67C20.23 48.17 21.96 45.85 23.5 43.73H28.32V43.74ZM149.71 19.46C155.1 22.93 160.31 26.78 164.74 31.21L163.01 47.59L164.55 52.98L168.79 55.1H171.29L173.99 61.07L177.07 59.72L174.95 55.1H183.62C184.97 57.8 186.51 60.69 187.67 63.58H149.13V62.62H150.48L149.9 19.27L149.71 19.46ZM166.67 45.09L169.75 52.03L167.63 50.87L166.67 47.4V45.28V45.09ZM191.91 89.79L188.83 86.51L188.06 85.55L189.79 80.93L187.67 79.58L186.32 78.04V76.69L190.75 73.03C192.29 78.42 193.45 84.01 194.22 89.99H192.1L191.91 89.8V89.79ZM161.66 115.61L170.91 115.03V117.53H169.95L161.66 115.6V115.61ZM56.26 183.04V180.92V162.04L82.85 161.65V162.04C83.04 162.04 83.04 162.43 83.04 162.43L83.81 163.01V162.62C84 162.62 88.05 169.17 88.05 169.17V183.04H56.07H56.26ZM56.07 121H57.42C57.42 120.81 57.61 121 57.61 121V121.19L66.67 135.45H56.07V120.81H55.88L56.07 121ZM53.76 106.55L52.03 103.66V101.93C51.84 101.93 47.98 97.11 47.98 97.11L43.36 89.4V88.44H42.78L33.34 73.03L32.57 73.42L33.15 72.84L32.19 71.3V67.83L59.36 67.44H87.3L87.69 111.18H69.96L57.24 111.76L53.77 106.37V106.56L53.76 106.55ZM76.69 142.58L74.19 138.73H76.69V142.58ZM72.06 135.45L60.31 116.76L70.71 115.6H87.86V135.45H72.06ZM80.54 157.42L80.93 158.19H56.27C56.27 158.38 56.27 138.54 56.27 138.54H68.79L80.54 157.42ZM88.25 161.85L79.58 148.17H79.77V138.54H88.06V161.66L88.25 161.85ZM108.67 111.37H91.33V91.14H108.67V111.37ZM108.29 36.61L110.02 63.58H91.14L90.75 22.92V17.53L106.93 33.71L108.28 36.79V36.6L108.29 36.61ZM87.09 22.93L87.48 63.59H59.73H56.26L57.22 56.08L54.72 18.51L86.9 19.09V22.94H87.09V22.93ZM32.56 82.27L36.03 88.05H32.37V82.27H32.56ZM91.52 115.8H111.94V135.26H91.71V115.8H91.52ZM112.52 111.37H111.94V88.06H91.32V67.64H111.55L112.32 77.47V102.9C112.51 102.9 114.63 107.91 114.63 107.91L113.47 108.87L112.51 111.37H112.52ZM116.18 100.19L115.41 67.82C115.41 67.63 123.31 67.63 123.31 67.63V95.76C123.5 95.76 122.54 100 122.54 100L117.92 104.43L116.19 100.19H116.18ZM116.18 110.6L116.57 110.21L117.92 111.37H115.8V110.6H116.19H116.18ZM123.89 110.79L119.84 107.13L125.43 101.74L126.78 96.35L125.24 95.96H126.78V67.44C126.59 67.44 147.78 67.44 147.78 67.44V69.94L147.01 92.1V110.98C147.2 110.98 135.45 110.98 135.45 110.98L123.7 110.4H123.89V110.79ZM184.97 82.08H181.89L179.39 79.77L176.89 77.46L178.05 74.57L178.63 73.8L182.29 73.22L184.02 74.18L183.63 74.57L183.05 74.96L181.32 76.89L183.05 79.01V79.97L185.55 81.7V82.28C185.36 82.28 184.97 81.89 184.97 81.89V82.08ZM188.63 69.56L186.51 71.68L184.2 70.33V67.83H189.02V69.56H188.63ZM180.54 69.36L177.46 69.75L176.88 70.71H176.11L175.34 72.83L172.26 77.07L173.22 78.03C173.22 78.22 177.27 81.88 177.27 81.88L180.74 85.35L182.09 85.93L180.36 87.28L170.53 78.99V79.38C170.34 79.38 168.03 71.29 168.03 71.29L164.95 72.25L168.03 82.65L177.47 90.55L176.51 91.9L150.69 90.94L151.65 67.63H180.94V69.36H180.55H180.54ZM150.67 111.37V94.22C150.48 94.22 173.98 94.99 173.98 94.99L170.9 99.23V111.56L161.07 112.33V111.56H150.47L150.66 111.37H150.67ZM92.68 5.39H94.8L94.41 6.35L92.48 6.93V5.39H92.67H92.68ZM86.51 8.48L84.01 6.75C84.97 6.75 85.94 6.56 86.9 6.36L86.51 8.48ZM86.51 13.49V15.61L57.42 15.22C64.16 11.75 71.29 9.25 78.81 7.51L86.32 13.48H86.51V13.49ZM53.76 55.88L52.8 62.62V63.58L32.18 63.97L31.79 43.74H53.18L53.95 55.88H53.76ZM20.23 62.43L21.19 64.16H11.94C13.29 61.08 14.64 57.99 16.18 55.1L20.03 62.42H20.22L20.23 62.43ZM10.6 68.21H23.89L26.2 71.68L28.7 75.92L29.28 82.28V88.25H8.67V74.96C9.25 72.65 10.02 70.34 10.79 68.22H10.6V68.21ZM29.29 111.95H8.67V91.33H29.29V111.95ZM8.86 123.89V115.22H31.02C31.02 115.41 31.02 113.87 31.02 113.87H32.75V91.71H37.37V92.48H38.53L47.01 106.55H47.4H47.21L47.98 107.51L49.91 112.52L41.05 112.91L10.41 130.64C10.02 129.48 9.64 128.33 9.25 127.17H13.1V124.09H8.86V123.9V123.89ZM41.23 116.57L54.14 115.99H54.72L55.68 117.53H54.33C54.33 117.72 54.52 119.26 54.52 119.26H52.98V135.25H44.5V119.07H41.22V135.25H24.65V157.02C19.26 150.08 14.82 142.38 11.74 133.9L41.41 116.37L41.22 116.56L41.23 116.57ZM52.99 138.73V158.58H44.51V138.54H52.99V138.73ZM64.93 186.13V187.86C63.58 187.28 62.04 186.7 60.69 186.13H64.93ZM68.21 186.13H76.69V191.91C73.8 191.14 70.91 190.37 68.21 189.41V186.13ZM79.77 186.13H88.44V194.03C85.55 193.64 82.66 193.26 79.77 192.68V186.13ZM99.61 153.37L91.9 154.72V138.73H111.94V145.28L113.67 149.52L108.47 154.14L99.41 153.56L99.6 153.37H99.61ZM174.18 121.97H188.63C188.63 122.16 188.63 121.2 188.63 121.2H190.75V117.92L174.18 117.53V101.54C174.37 101.54 180.35 93.06 180.35 93.06L194.8 105.2C193.64 125.43 186.13 144.12 174.18 158.96V121.97ZM183.43 89.98L186.13 88.05L186.71 88.63L190.18 93.25H193.65C193.65 93.06 194.81 93.06 194.81 93.06C194.81 95.18 195 97.49 195 99.8L183.63 89.97H183.44L183.43 89.98ZM181.7 51.83H173.41L168.79 41.62L167.06 42.39L168.02 33.72C173.22 39.11 177.85 45.09 181.7 51.64V51.83ZM148.55 18.69H146.62L147.2 60.89L139.11 53.95L136.99 56.45L145.08 63.39H116.76L115.6 62.04L113.48 35.45L111.36 30.63L104.81 24.85C104.81 24.66 105.77 24.27 105.77 24.27L105.38 23.11L105.77 21.76L104.23 21.37L95.94 16.36L93.44 10.77L97.68 9.42L99.03 5.57H100.76C118.49 5.57 135.06 10.58 149.31 19.06L148.54 18.67L148.55 18.69ZM51.45 18.69L52.8 40.66H31.61V34.49C37.39 28.32 44.13 22.93 51.46 18.5V18.69H51.45ZM28.52 162.24H41.04V174.19C36.42 170.53 32.37 166.48 28.52 162.24ZM92.29 194.41V174.95L97.88 184.2H98.27C98.27 184.01 97.88 184.2 97.88 184.2L104.43 194.6H100C97.5 194.6 94.8 194.6 92.29 194.21V194.4V194.41ZM119.08 163.78L121.2 164.74L122.16 165.32H130.06L131.6 168.21H131.99L132.95 169.94L139.5 171.48H140.46C140.46 171.67 143.16 177.65 143.16 177.65L142.77 184.2C137.95 186.7 132.94 188.82 127.74 190.37L122.73 189.6L115.02 186.13L114.06 174.76L110.21 170.52L112.14 165.51L115.22 164.16L118.88 163.77H119.07L119.08 163.78ZM107.9 193.26L112.14 190.56L113.1 189.21L120.23 192.68C116.38 193.45 112.52 194.03 108.67 194.41L108.09 193.25H107.9V193.26ZM146.44 182.66L146.83 177.27L143.75 169.18L140.67 168.41L134.89 166.48L132.39 162.05H122.95L121.02 160.51H119.67L117.94 159.93L114.86 161.09H112.36C112.36 161.28 111.01 162.63 111.01 162.63L109.66 163.21L106.58 171.5L110.82 176.12L111.98 185.18L111.4 186.72L106.58 190.19V190.58C106.58 190.39 102.34 183.84 102.34 183.84L92.71 168.23V158.79L110.24 157.83H111.59L116.98 152.05L119.1 150.12H144.92V146.46H118.33L117.75 147.04H117.17L116.78 147.43L115.82 145.12V116.8L147.42 117.19L163.99 120.47L171.31 122.2V163.63C164.37 171.34 156.09 178.08 147.03 183.28L146.45 182.7L146.44 182.66Z" fill="#fff666"/>
</svg>
