<?xml version="1.0" encoding="UTF-8"?>
<svg id="Layer_1" xmlns="http://www.w3.org/2000/svg" version="1.1" viewBox="0 0 81 330.2">
  <!-- Generator: Adobe Illustrator 29.3.1, SVG Export Plug-In . SVG Version: 2.1.0 Build 151)  -->
  <path d="M80.5,28c-.6-1.4-1.7-2.5-3-3l-32.4-14.8c1-1.1,1.6-2.5,1.6-4.1,0-3.4-2.7-6.1-6.1-6.1s-6.1,2.7-6.1,6.1.6,3,1.6,4.1L3.5,24.9c-3,1.3-4.3,4.7-3,7.7.6,1.3,1.7,2.4,3,3l11.9,5.4v12.3c0,7.6,11,13.5,25.1,13.5s25.1-5.9,25.1-13.5v-12.3l11.4-5.2v17.4c0,1.1.9,2,2,2s2-.9,2-2v-22.3c0-1,0-2.1-.4-3.1v.2ZM40.5,4c1.2,0,2.1.9,2.1,2.1s-.9,2.1-2.1,2.1-2.1-.9-2.1-2.1.9-2.1,2.1-2.1ZM61.5,53.4c0,4.5-8.7,9.5-21.1,9.5s-21.1-5-21.1-9.5v-10.5l17.1,7.8c1.3.6,2.7.9,4,.9s2.7-.3,4-.9l17.1-7.7v10.5h0ZM76.8,31c-.2.5-.5.8-1,1h0l-33,15c-1.5.7-3.2.7-4.7,0L5.1,32c-.4-.2-.8-.5-1-.9-.4-.9,0-2,1-2.4l33-15c.8-.3,1.6-.5,2.4-.5s1.6.2,2.4.5l33,15c.4.2.8.5,1,1,0,.1,0,.3,0,.4v1h-.2Z"/>
  <path d="M80.3,124.3c-.2-.5-.6-.9-1-1.3s-.9-.7-1.4-1.1c-.5-.3-1-.6-1.5-.8-.4-.2-1-.5-1.9-.9s-1.8-.9-2.8-1.4-2.1-1.1-3.3-1.7c-1.2-.6-2.3-1.2-3.4-1.7-1.1-.6-2.1-1.1-3.1-1.5-.9-.5-1.7-.8-2.3-1.1-3.8-1.8-7.5-3.6-11.2-5.3s-7.5-3.4-11.4-5l-.6-6.6c-.2-2.2-.4-4.3-.5-6.4,0-.8-.3-1.5-.9-1.9s-1.2-.7-2.1-.7h-.3c.5-.7,1.1-1.4,1.6-2.1,0,0,.2-.3.3-.4,0,.2,0,.5.2.7.2.5.5,1,.8,1.5s.7.9,1,1.3c.4.4.7.7,1,1,.2,0,.3.2.5.3h.5c.4,0,.7,0,1-.4s.4-.6.4-1,0-.5,0-.7c0-.2-.2-.4-.4-.6s-.4-.4-.6-.7c-.3-.3-.5-.6-.7-.8-.2-.3-.4-.6-.5-.8,0-.2-.2-.4,0-.5h.4c.2,0,.5,0,.9,0,.3,0,.7.2,1.1.3.4,0,.8.2,1.2.3.4,0,.7.2,1,.3.3,0,.5,0,.6.2h.5c.2,0,.4,0,.6-.2.2.2.3.3.6.4.2,0,.5.2.7.2.4,0,.7,0,1-.4.3-.2.5-.5.6-.8.2-.3.3-.6.3-.9s0-.5,0-.5h0c0-.2,0-.4,0-.6,0-.2-.2-.4-.4-.5s-.3-.2-.5-.3c-.2,0-.4,0-.6,0s-.5,0-.6,0c-.2,0-.3.2-.4.4,0,0,0,.2-.2.3,0,0,0,.2-.2.4h-.2c-.4,0-.8-.3-1.3-.4s-1.1-.3-1.6-.4-1.1-.2-1.6-.3c-.5,0-1,0-1.5,0h-.6s0-.2.2-.3c.9-1.4,1.7-2.9,2.5-4.5s1.5-3.3,2.2-5.1c.8,2.5,1.8,4.9,3,7.2,1.2,2.2,2.5,4.4,4,6.6.5.7,1,1.3,1.6,2s1.2,1.3,1.9,1.8,1.4,1,2.2,1.3,1.6.5,2.5.5,1,0,1.5-.2.9-.3,1.2-.6c.3-.3.6-.6.8-1s.3-.9.3-1.5,0-1.2-.3-1.8c-.2-.6-.5-1.3-.8-1.9s-.6-1.2-1-1.7c-.3-.5-.6-1-.8-1.3-.8-1.2-1.7-2.3-2.6-3.4s-1.9-2.2-2.9-3.3c-1-1.1-2.1-2.1-3.2-3.1-1.1-1-2.3-1.9-3.5-2.7l9.6,1.4c0,.4.2.7.5.9.3.3.6.4,1,.4s.5,0,.7,0c.3,0,.5-.2.6-.4.2,0,.4,0,.6-.2.2,0,.4-.2.6-.3.2,0,.3-.3.5-.5,0-.2.2-.4.2-.7s0-.6-.3-.9c-.2-.3-.5-.5-.9-.6-3.6-.5-7.1-1-10.7-1.5-3.5-.5-7.1-1-10.6-1.6h-.4l-6.5-1h-1.2c-.2,0-.5,0-.6,0-.2,0-.3.2-.4.3s-.2.3-.2.4v.9c0,.2.2.3.3.5.1,0,.3.2.4.3.2,0,.3.2.5.2l7.6,1.1c.5.2,1,.3,1.5.6.5.2,1.1.5,1.6.7-1.3,3.6-2.9,6.9-4.8,10.2-1.9,3.2-4.1,6.3-6.5,9.2-.1.2-.2.3-.3.4s0,.3,0,.4c0,.4.1.7.4,1s.6.4,1,.4.1,0,.2,0h0c0,1.7-.2,3.3-.5,4.8-.4,1.5-.8,3.1-1.4,4.7-1.6-.6-3.2-1.1-4.9-1.6-1.7-.5-3.4-1-5.2-1.4s-3.5-.7-5.3-.9c-1.8-.2-3.5-.4-5.2-.4s-1.6.3-2.2.9-.9,1.3-.9,2.2.2,1.6.7,2.1,1.2.8,2.1.8c1.5,0,3,0,4.6.3,1.6.2,3.2.5,4.9.8,1.6.4,3.2.8,4.7,1.3s3,1,4.3,1.6c-.4,1-.8,2.1-1.4,3.3-.5,1.2-1.2,2.4-1.8,3.7-.7,1.2-1.4,2.5-2.1,3.7s-1.5,2.3-2.3,3.3-1.6,1.9-2.5,2.6c-.8.7-1.7,1.2-2.5,1.4-.5.3-1.2.5-1.9.7s-1.4.4-2.1.7c-.7.3-1.3.6-1.7,1.1-.5.4-.7,1-.7,1.8s.3,1.6.8,2.2c.5.6,1.2.8,2,.7,1.9-.2,3.9-.4,6-.5,2-.2,4.1-.3,6.2-.5s4.2-.3,6.2-.4c2.1-.1,4.1-.2,6-.2,0,.7,0,1.3.2,2,0,.6.2,1.2.4,1.8.2.8.6,1.4,1,1.8h0c-.3.2-.5.4-.7.7s-.3.6-.3,1,0,.7.2,1.1c0,.3.3.6.5.9.2.3.5.5.7.7s.6.4.9.5c-.3,0-.6.2-.9.4-.3.2-.6.4-.8.6-.2.2-.4.4-.6.7,0,.3-.2.5-.2.8,0,.6,0,1.1.4,1.5s.7.8,1.1,1.1,1,.6,1.5.8c.6.2,1.1.3,1.6.4,0,.3,0,.7.2,1.1s.2.7.4,1.1c0,0,0,.1,0,.2-.4,0-.9,0-1.3.3-.4.2-.8.4-1.1.7s-.5.6-.7,1-.3.8-.3,1.2,0,.9.4,1.4c.3.5.6.9.9,1.3-.3.2-.4.5-.5.8s0,.6,0,.9c0,.5,0,1,.4,1.6.3.6.6,1.1.9,1.7,0,0,0,.1,0,.2h-1.3c-.2,0-.5.1-.7.2-.2.1-.4.3-.6.4,0,.2-.2.4-.2.7,0,.5,0,.8.4,1.2s.6.6.9.8c.3.2.6.3.9.6.4.2.7.5,1,.8s.6.6.8.9c.2.3.3.6.3.9s0,.4-.3.7c-.2.2-.4.5-.7.8s-.6.6-.9.8c-.3.3-.6.6-.9,1-.3.3-.5.7-.7,1.1-.2.4-.3.8-.3,1.3s0,1.1.4,1.7.6,1.2,1,1.7c.2.2.4.5.6.7h-.3c-.4.1-.7.3-1,.5s-.5.5-.7.8-.2.7-.2,1.1,0,.5.2.8c0,.3.3.6.5.8.2.3.4.5.7.8s.5.5.8.7c-.4.2-.8.4-1.1.8-.3.3-.5.8-.5,1.3s0,.6.2,1c0,.4.3.7.5,1.1.2.4.5.8.8,1.2.2.2.3.4.5.6-.2,0-.5,0-.7.2-.5.2-.9.4-1.3.7-.4.3-.7.6-1,1.1-.2.4-.4.9-.4,1.5s0,.8.3,1.3c.2.4.4.9.6,1.3.3.4.5.8.9,1.2.3.4.6.8.9,1.1.3.3.5.6.8.8.2.2.4.4.5.5.4.4.7.6,1,.8s.5.3.6.3c.2,0,.4,0,.5-.1.2,0,.3-.2.4-.3,0-.1.2-.3.3-.5s0-.3,0-.5,0-.5,0-.7c0-.2-.2-.4-.4-.6h0c-.3-.3-.7-.6-1.1-1-.4-.4-.8-.8-1.2-1.3-.4-.4-.7-.9-.9-1.3-.3-.4-.4-.8-.4-1.2s0-.1.2-.2c0,0,.2,0,.4-.1s.4,0,.6,0h.7c1.1,0,2.3.1,3.4.3,1.1.2,2.2.4,3.4.7.2.3.4.5.8.7.4.2.7.3,1.2.4.4.1.8.2,1.2.2h1.7c.3,0,.6,0,.8-.2s.5-.3.7-.5.3-.5.3-1,0-.8-.4-.9c-.3-.2-.6-.3-1-.5-.3-.1-.8-.2-1.3-.4s-1.2-.3-1.9-.5-1.4-.3-2.2-.5-1.6-.3-2.4-.4c-.6,0-1.1-.2-1.7-.2h0c0-.6-.3-1-.8-1.3h0s-.2-.2-.4-.3-.5-.4-.7-.7c-.2-.2-.5-.5-.7-.8s-.3-.5-.3-.6,0-.1.3-.1h3.3c.2,0,.3,0,.4-.2,0-.1.2-.2.3-.4,0-.2,0-.3,0-.5v-.5c0-.2,0-.4,0-.5,0-.1-.2-.3-.3-.4s-.3-.2-.4-.3c0,0-.3-.1-.4-.2,0,0-.3-.1-.5-.2-.2-.1-.5-.3-.8-.4-.3-.2-.6-.3-.9-.5-.3-.2-.6-.3-.9-.5-.3-.2-.5-.3-.6-.4-.2-.1-.2-.2-.2-.3s.2-.1.5,0c.4,0,.8.1,1.3.2.5.1,1,.2,1.5.3s.9.2,1.1.2.4,0,.5-.1.3-.2.4-.4c0-.2.2-.3.2-.5v-.5c0-.3,0-.5-.2-.8-.2-.2-.4-.4-.6-.5-.2,0-.5-.1-.8-.2h-.3v-.2c0-.2-.3-.4-.5-.7-.2-.2-.5-.5-.8-.8s-.6-.6-.9-1c-.3-.3-.5-.7-.7-1.1-.2-.4-.3-.7-.3-1s0-.4.3-.7c.2-.2.4-.5.7-.8s.6-.6.9-.9c.3-.3.6-.6.9-.9.3-.3.5-.6.7-.9.2-.3.3-.6.3-.9,0-.7,0-1.3-.4-1.9-.2-.5-.5-1-.9-1.4.4.1.8.2,1.3.3.4,0,.7.1.9.1.4,0,.7-.2.9-.5s.3-.6.3-1,0-.7-.4-.9c-.2-.3-.5-.4-.8-.5-.3,0-.8-.2-1.3-.3h-.2c-.2-.2-.4-.5-.6-.7-.2-.3-.5-.7-.7-1s-.4-.7-.6-1c-.2-.3-.3-.6-.5-.9.2,0,.4,0,.6.1h1.1c.2.2.4.4.7.5s.6.2.8.2c.6,0,1.1-.3,1.5-.8s.6-1.4.6-2.6-.2-1.2-.5-1.8-.7-1.2-1.2-1.7c-.2-.2-.4-.4-.6-.5v-.4h0c0-.2,0-.4-.2-.7,0-.3-.3-.6-.4-.9,0-.3-.3-.5-.4-.8,0-.3-.2-.5-.3-.8.4,0,.8-.1,1.2-.2.4-.1.8-.2,1.1-.4s.6-.3.8-.5.3-.5.3-.7c0-.4,0-.7-.3-1-.2-.2-.4-.4-.6-.5-.3-.1-.6-.2-.9-.2h-1c-.3,0-.9.1-1.3.3s-.8.5-1.1.8c-.2,0-.4,0-.6-.1-.2,0-.5-.1-.7-.2-.2,0-.4-.1-.6-.2-.2,0-.2-.2-.2-.2h.3c.3-.2.4-.1.6-.2.3,0,.5-.1.8-.2s.6-.2.8-.4c.3-.2.5-.4.6-.6s.3-.5.3-.9,0-.5-.2-.7-.4-.4-.6-.7c-.2-.2-.5-.4-.8-.6-.3-.2-.5-.3-.8-.5-.2-.1-.4-.2-.6-.3-.2,0-.2-.2-.2-.2h.2c.2,0,.4,0,.6.1.3,0,.5.1.9.2.3,0,.6.2.9.2s.6.2.8.3c.2,0,.4.2.6.2.2.1.4.2.7.4.2.2.5.2.7.2.4,0,.8-.1,1.1-.4.3-.3.4-.6.4-1v-.5c0-.2,0-.4-.3-.5-.4-.4-1-.8-1.6-1-.6-.3-1.3-.5-1.9-.6-.4,0-.8-.2-1.2-.2.5-.5.8-1.1.8-1.9s0-1.2-.2-1.7-.2-1.1-.3-1.7h15.6c3.6,0,7.2.1,10.9.4,3.7.2,7.4.4,10.9.5.9,0,1.6-.2,2.2-.8.6-.5.9-1.3.9-2.1s0-1.2-.4-1.7l-.4-1.4ZM47.6,73.3c1.1,1,2.1,2,3.2,3.1s2,2.2,3,3.3c.9,1.1,1.7,2.1,2.3,3.1h0c.2.3.4.6.6.9.2.3.4.7.6,1.1.2.4.3.7.5,1.1,0,.4.2.7.2,1s0,.5-.2.7c0,0-.3.2-.5.2-.7,0-1.3-.2-2-.6s-1.3-.9-2-1.5c-.6-.6-1.2-1.3-1.8-2s-1-1.3-1.4-1.9c-.5-.8-1-1.6-1.5-2.5s-1-1.8-1.4-2.7c-.5-.9-.9-1.9-1.3-2.8s-.8-1.9-1.1-2.8c.9.7,1.9,1.5,2.9,2.5v-.2ZM27.9,122.2c-1.7,0-3.4,0-5.2.3,1.1-1.2,2-2.4,2.8-3.6s1.5-2.4,2.1-3.7c.6-1.3,1.3-2.6,1.9-4s1.3-2.8,2-4.4c.2,2.6.5,5.2.7,7.8s.5,5.1.8,7.6h0c-1.7,0-3.4,0-5.1,0ZM42.3,153c0-.1-.2-.2-.4-.3-.2,0-.3-.2-.5-.2s-.4-.2-.6-.3c-.2-.1-.5-.3-.7-.4-.2-.2-.4-.3-.6-.5-.2-.2-.2-.4-.2-.6s0-.3.2-.5c0-.2.4-.2.8-.2s.4,0,.7.3c.2.2.5.4.7.7s.4.6.6.8c.2.3.2.6.2.8v.5h-.2ZM57.7,122.1h-18.6c-.3-2.1-.5-4.3-.7-6.5s-.5-4.3-.7-6.4c4.5,2,9.1,4.1,13.7,6.4s9.1,4.5,13.5,6.6c-2.4,0-4.7-.2-7.1-.2h-.1Z"/>
  <path d="M79.8,257c-.2-.5-.6-.9-1-1.3s-.9-.7-1.4-1.1c-.5-.3-1-.6-1.5-.8-.4-.2-1-.5-1.9-.9s-1.8-.9-2.8-1.4-2.1-1.1-3.3-1.7c-1.2-.6-2.3-1.2-3.4-1.7-1.1-.6-2.1-1.1-3.1-1.5-.9-.5-1.7-.8-2.3-1.1-3.8-1.8-7.5-3.6-11.2-5.3s-7.5-3.4-11.4-5l-.6-6.6c-.2-2.2-.4-4.3-.5-6.4,0-.8-.3-1.5-.9-1.9s-1.2-.7-2.1-.7h-.3c.5-.7,1.1-1.4,1.6-2.1,0,0,.2-.3.3-.4,0,.2,0,.5.2.7.2.5.5,1,.8,1.5s.7.9,1,1.3c.4.4.7.7,1,1,.2,0,.3.2.5.3h.5c.4,0,.7,0,1-.4s.4-.6.4-1,0-.5,0-.7c0-.2-.2-.4-.4-.6s-.4-.4-.6-.7c-.3-.3-.5-.6-.7-.8-.2-.3-.4-.6-.5-.8,0-.2-.2-.4,0-.5h.4c.2,0,.5,0,.9,0,.3,0,.7.2,1.1.3.4,0,.8.2,1.2.3.4,0,.7.2,1,.3.3,0,.5,0,.6.2h.5c.2,0,.4,0,.6-.2.2.2.3.3.6.4.2,0,.5.2.7.2.4,0,.7,0,1-.4.3-.2.5-.5.6-.8.2-.3.3-.6.3-.9s0-.5,0-.5h0c0-.2,0-.4,0-.6,0-.2-.2-.4-.4-.5s-.3-.2-.5-.3c-.2,0-.4,0-.6,0s-.5,0-.6,0c-.2,0-.3.2-.4.4,0,0,0,.2-.2.3,0,0,0,.2-.2.4h-.2c-.4,0-.8-.3-1.3-.4s-1.1-.3-1.6-.4-1.1-.2-1.6-.3c-.5,0-1,0-1.5,0h-.6s0-.2.2-.3c.9-1.4,1.7-2.9,2.5-4.5s1.5-3.3,2.2-5.1c.8,2.5,1.8,4.9,3,7.2,1.2,2.2,2.5,4.4,4,6.6.5.7,1,1.3,1.6,2s1.2,1.3,1.9,1.8,1.4,1,2.2,1.3,1.6.5,2.5.5,1,0,1.5-.2.9-.3,1.2-.6c.3-.3.6-.6.8-1s.3-.9.3-1.5,0-1.2-.3-1.8c-.2-.6-.5-1.3-.8-1.9s-.6-1.2-1-1.7c-.3-.5-.6-1-.8-1.3-.8-1.2-1.7-2.3-2.6-3.4s-1.9-2.2-2.9-3.3c-1-1.1-2.1-2.1-3.2-3.1-1.1-1-2.3-1.9-3.5-2.7l9.6,1.4c0,.4.2.7.5.9.3.3.6.4,1,.4s.5,0,.7,0c.3,0,.5-.2.6-.4.2,0,.4,0,.6-.2.2,0,.4-.2.6-.3.2,0,.3-.3.5-.5,0-.2.2-.4.2-.7s0-.6-.3-.9c-.2-.3-.5-.5-.9-.6-3.6-.5-7.1-1-10.7-1.5-3.5-.5-7.1-1-10.6-1.6h-.4l-6.5-1h-1.2c-.2,0-.5,0-.6,0-.2,0-.3.2-.4.3s-.2.3-.2.4v.9c0,.2.2.3.3.5.1,0,.3.2.4.3.2,0,.3.2.5.2l7.6,1.1c.5.2,1,.3,1.5.6.5.2,1.1.5,1.6.7-1.3,3.6-2.9,6.9-4.8,10.2-1.9,3.2-4.1,6.3-6.5,9.2-.1.2-.2.3-.3.4s0,.3,0,.4c0,.4.1.7.4,1s.6.4,1,.4.1,0,.2,0h0c0,1.7-.2,3.3-.5,4.8-.4,1.5-.8,3.1-1.4,4.7-1.6-.6-3.2-1.1-4.9-1.6-1.7-.5-3.4-1-5.2-1.4s-3.5-.7-5.3-.9c-1.8-.2-3.5-.4-5.2-.4s-1.6.3-2.2.9-.9,1.3-.9,2.2.2,1.6.7,2.1,1.2.8,2.1.8c1.5,0,3,0,4.6.3,1.6.2,3.2.5,4.9.8,1.6.4,3.2.8,4.7,1.3s3,1,4.3,1.6c-.4,1-.8,2.1-1.4,3.3-.5,1.2-1.2,2.4-1.8,3.7-.7,1.2-1.4,2.5-2.1,3.7s-1.5,2.3-2.3,3.3-1.6,1.9-2.5,2.6c-.8.7-1.7,1.2-2.5,1.4-.5.3-1.2.5-1.9.7s-1.4.4-2.1.7c-.7.3-1.3.6-1.7,1.1-.5.4-.7,1-.7,1.8s.3,1.6.8,2.2c.5.6,1.2.8,2,.7,1.9-.2,3.9-.4,6-.5,2-.2,4.1-.3,6.2-.5s4.2-.3,6.2-.4c2.1-.1,4.1-.2,6-.2,0,.7,0,1.3.2,2,0,.6.2,1.2.4,1.8.2.8.6,1.4,1,1.8h0c-.3.2-.5.4-.7.7s-.3.6-.3,1,0,.7.2,1.1c0,.3.3.6.5.9.2.3.5.5.7.7s.6.4.9.5c-.3,0-.6.2-.9.4-.3.2-.6.4-.8.6-.2.2-.4.4-.6.7,0,.3-.2.5-.2.8,0,.6,0,1.1.4,1.5s.7.8,1.1,1.1,1,.6,1.5.8c.6.2,1.1.3,1.6.4,0,.3,0,.7.2,1.1s.2.7.4,1.1c0,0,0,.1,0,.2-.4,0-.9,0-1.3.3-.4.2-.8.4-1.1.7s-.5.6-.7,1-.3.8-.3,1.2,0,.9.4,1.4c.3.5.6.9.9,1.3-.3.2-.4.5-.5.8s0,.6,0,.9c0,.5,0,1,.4,1.6.3.6.6,1.1.9,1.7,0,0,0,.1,0,.2h-1.3c-.2,0-.5.1-.7.2-.2.1-.4.3-.6.4,0,.2-.2.4-.2.7,0,.5,0,.8.4,1.2s.6.6.9.8c.3.2.6.3.9.6.4.2.7.5,1,.8s.6.6.8.9c.2.3.3.6.3.9s0,.4-.3.7c-.2.2-.4.5-.7.8s-.6.6-.9.8c-.3.3-.6.6-.9,1-.3.3-.5.7-.7,1.1-.2.4-.3.8-.3,1.3s0,1.1.4,1.7.6,1.2,1,1.7c.2.2.4.5.6.7h-.3c-.4.1-.7.3-1,.5s-.5.5-.7.8-.2.7-.2,1.1,0,.5.2.8c0,.3.3.6.5.8.2.3.4.5.7.8s.5.5.8.7c-.4.2-.8.4-1.1.8-.3.3-.5.8-.5,1.3s0,.6.2,1c0,.4.3.7.5,1.1.2.4.5.8.8,1.2.2.2.3.4.5.6-.2,0-.5,0-.7.2-.5.2-.9.4-1.3.7-.4.3-.7.6-1,1.1-.2.4-.4.9-.4,1.5s0,.8.3,1.3c.2.4.4.9.6,1.3.3.4.5.8.9,1.2.3.4.6.8.9,1.1.3.3.5.6.8.8.2.2.4.4.5.5.4.4.7.6,1,.8s.5.3.6.3c.2,0,.4,0,.5-.1.2,0,.3-.2.4-.3,0-.1.2-.3.3-.5s0-.3,0-.5,0-.5,0-.7c0-.2-.2-.4-.4-.6h0c-.3-.3-.7-.6-1.1-1-.4-.4-.8-.8-1.2-1.3-.4-.4-.7-.9-.9-1.3-.3-.4-.4-.8-.4-1.2s0-.1.2-.2c0,0,.2,0,.4-.1s.4,0,.6,0h.7c1.1,0,2.3.1,3.4.3,1.1.2,2.2.4,3.4.7.2.3.4.5.8.7.4.2.7.3,1.2.4.4.1.8.2,1.2.2h1.7c.3,0,.6,0,.8-.2s.5-.3.7-.5.3-.5.3-1,0-.8-.4-.9c-.3-.2-.6-.3-1-.5-.3-.1-.8-.2-1.3-.4s-1.2-.3-1.9-.5-1.4-.3-2.2-.5-1.6-.3-2.4-.4c-.6,0-1.1-.2-1.7-.2h0c0-.6-.3-1-.8-1.3h0s-.2-.2-.4-.3-.5-.4-.7-.7c-.2-.2-.5-.5-.7-.8s-.3-.5-.3-.6,0-.1.3-.1h3.3c.2,0,.3,0,.4-.2,0-.1.2-.2.3-.4,0-.2,0-.3,0-.5v-.5c0-.2,0-.4,0-.5,0-.1-.2-.3-.3-.4s-.3-.2-.4-.3c0,0-.3-.1-.4-.2,0,0-.3-.1-.5-.2-.2-.1-.5-.3-.8-.4-.3-.2-.6-.3-.9-.5-.3-.2-.6-.3-.9-.5-.3-.2-.5-.3-.6-.4-.2-.1-.2-.2-.2-.3s.2-.1.5,0c.4,0,.8.1,1.3.2.5.1,1,.2,1.5.3s.9.2,1.1.2.4,0,.5-.1.3-.2.4-.4c0-.2.2-.3.2-.5v-.5c0-.3,0-.5-.2-.8-.2-.2-.4-.4-.6-.5-.2,0-.5-.1-.8-.2h-.3v-.2c0-.2-.3-.4-.5-.7-.2-.2-.5-.5-.8-.8s-.6-.6-.9-1c-.3-.3-.5-.7-.7-1.1-.2-.4-.3-.7-.3-1s0-.4.3-.7c.2-.2.4-.5.7-.8s.6-.6.9-.9c.3-.3.6-.6.9-.9.3-.3.5-.6.7-.9.2-.3.3-.6.3-.9,0-.7,0-1.3-.4-1.9-.2-.5-.5-1-.9-1.4.4.1.8.2,1.3.3.4,0,.7.1.9.1.4,0,.7-.2.9-.5s.3-.6.3-1,0-.7-.4-.9c-.2-.3-.5-.4-.8-.5-.3,0-.8-.2-1.3-.3h-.2c-.2-.2-.4-.5-.6-.7-.2-.3-.5-.7-.7-1s-.4-.7-.6-1c-.2-.3-.3-.6-.5-.9.2,0,.4,0,.6.1h1.1c.2.2.4.4.7.5s.6.2.8.2c.6,0,1.1-.3,1.5-.8s.6-1.4.6-2.6-.2-1.2-.5-1.8-.7-1.2-1.2-1.7c-.2-.2-.4-.4-.6-.5v-.4h0c0-.2,0-.4-.2-.7,0-.3-.3-.6-.4-.9,0-.3-.3-.5-.4-.8,0-.3-.2-.5-.3-.8.4,0,.8-.1,1.2-.2.4-.1.8-.2,1.1-.4s.6-.3.8-.5.3-.5.3-.7c0-.4,0-.7-.3-1-.2-.2-.4-.4-.6-.5-.3-.1-.6-.2-.9-.2h-1c-.3,0-.9.1-1.3.3s-.8.5-1.1.8c-.2,0-.4,0-.6-.1-.2,0-.5-.1-.7-.2-.2,0-.4-.1-.6-.2-.2,0-.2-.2-.2-.2h.3c.3-.2.4-.1.6-.2.3,0,.5-.1.8-.2s.6-.2.8-.4c.3-.2.5-.4.6-.6s.3-.5.3-.9,0-.5-.2-.7-.4-.4-.6-.7c-.2-.2-.5-.4-.8-.6-.3-.2-.5-.3-.8-.5-.2-.1-.4-.2-.6-.3-.2,0-.2-.2-.2-.2h.2c.2,0,.4,0,.6.1.3,0,.5.1.9.2.3,0,.6.2.9.2s.6.2.8.3c.2,0,.4.2.6.2.2.1.4.2.7.4.2.2.5.2.7.2.4,0,.8-.1,1.1-.4.3-.3.4-.6.4-1v-.5c0-.2,0-.4-.3-.5-.4-.4-1-.8-1.6-1-.6-.3-1.3-.5-1.9-.6-.4,0-.8-.2-1.2-.2.5-.5.8-1.1.8-1.9s0-1.2-.2-1.7-.2-1.1-.3-1.7h15.6c3.6,0,7.2.1,10.9.4,3.7.2,7.4.4,10.9.5.9,0,1.6-.2,2.2-.8.6-.5.9-1.3.9-2.1s0-1.2-.4-1.7l-.4-1.4ZM47.1,206c1.1,1,2.1,2,3.2,3.1s2,2.2,3,3.3c.9,1.1,1.7,2.1,2.3,3.1h0c.2.3.4.6.6.9.2.3.4.7.6,1.1.2.4.3.7.5,1.1,0,.4.2.7.2,1s0,.5-.2.7c0,0-.3.2-.5.2-.7,0-1.3-.2-2-.6s-1.3-.9-2-1.5c-.6-.6-1.2-1.3-1.8-2s-1-1.3-1.4-1.9c-.5-.8-1-1.6-1.5-2.5s-1-1.8-1.4-2.7c-.5-.9-.9-1.9-1.3-2.8s-.8-1.9-1.1-2.8c.9.7,1.9,1.5,2.9,2.5v-.2ZM27.4,254.9c-1.7,0-3.4,0-5.2.3,1.1-1.2,2-2.4,2.8-3.6s1.5-2.4,2.1-3.7c.6-1.3,1.3-2.6,1.9-4s1.3-2.8,2-4.4c.2,2.6.5,5.2.7,7.8s.5,5.1.8,7.6h0c-1.7,0-3.4,0-5.1,0ZM41.8,285.7c0-.1-.2-.2-.4-.3-.2,0-.3-.2-.5-.2s-.4-.2-.6-.3c-.2-.1-.5-.3-.7-.4-.2-.2-.4-.3-.6-.5-.2-.2-.2-.4-.2-.6s0-.3.2-.5c0-.2.4-.2.8-.2s.4,0,.7.3c.2.2.5.4.7.7s.4.6.6.8c.2.3.2.6.2.8v.5h-.2ZM57.2,254.8h-18.6c-.3-2.1-.5-4.3-.7-6.5s-.5-4.3-.7-6.4c4.5,2,9.1,4.1,13.7,6.4s9.1,4.5,13.5,6.6c-2.4,0-4.7-.2-7.1-.2h-.1Z"/>
</svg>